# xmcd CD database file
#
# Track frame offsets:
#	150
#	12062
#	24443
#	37469
#	51036
#	63897
#	76082
#	93579
#	104707
#	120788
#	133648
#	147511
#	161039
#	175427
#	186571
#	199217
#	213046
#	237849
#	251156
#	261969
#
# Disc length: 3658 seconds
#
# Revision: 1
# Processed by: cddbd v1.5.2PL0 Copyright (c) Steve Scherf et al.
# Submitted via: CDex 1.51
#
DISCID=210e4814
DTITLE=Don Byas - Jazz Ballads disc 2
DYEAR=2004
DGENRE=Jazz
TTITLE0=Night and Day
TTITLE1=The man I love
TTITLE2=Georgia on my mind
TTITLE3=Easy to love
TTITLE4=Over the rainbow
TTITLE5=Where or when
TTITLE6=GDB
TTITLE7=Yime on my hands
TTITLE8=Sweet Loraine
TTITLE9=April in Paris
TTITLE10=September in the rain
TTITLE11=These foolish things
TTITLE12=Stormy weather
TTITLE13=I Can't explain
TTITLE14=Laure
TTITLE15=Stardust
TTITLE16=candy
TTITLE17=To each his own
TTITLE18=They say it's wonderful
TTITLE19=Cynthia's in love
EXTD=YEAR: 2004
EXTT0=
EXTT1=
EXTT2=
EXTT3=
EXTT4=
EXTT5=
EXTT6=
EXTT7=
EXTT8=
EXTT9=
EXTT10=
EXTT11=
EXTT12=
EXTT13=
EXTT14=
EXTT15=
EXTT16=
EXTT17=
EXTT18=
EXTT19=
PLAYORDER=
